HIERARCHY
ROOT Torso
{
	OFFSET 0.000000 0.000000 0.000000
	CHANNELS 6 Xposition Yposition Zposition Xrotation Yrotation Zrotation 
	JOINT LHip
	{
		OFFSET 0.000000 0.000000 0.000000
		CHANNELS 3 Xrotation Yrotation Zrotation
		JOINT LThigh
		{
			OFFSET 0.055000 -0.055000 -0.010000
			CHANNELS 3 Xrotation Yrotation Zrotation
			JOINT LLeg
			{
				OFFSET 0.000000 -0.160000 0.015000
				CHANNELS 3 Xrotation Yrotation Zrotation
				JOINT LFoot
				{
					OFFSET 0.000000 -0.160000 -0.010000
					CHANNELS 3 Xrotation Yrotation Zrotation
					JOINT LToes
					{
						OFFSET 0.000000 0.000000 0.090000
						CHANNELS 3 Xrotation Yrotation Zrotation
						End Site
						{
							OFFSET 0.000000 0.000000 0.000000
						}
					}
				}
			}
		}
	}
	JOINT RHip
	{
		OFFSET 0.000000 0.000000 0.000000
		CHANNELS 3 Xrotation Yrotation Zrotation
		JOINT RThigh
		{
			OFFSET -0.055000 -0.055000 -0.010000
			CHANNELS 3 Xrotation Yrotation Zrotation
			JOINT RLeg
			{
				OFFSET 0.000000 -0.160000 0.015000
				CHANNELS 3 Xrotation Yrotation Zrotation
				JOINT RFoot
				{
					OFFSET 0.000000 -0.160000 -0.010000
					CHANNELS 3 Xrotation Yrotation Zrotation
					JOINT RToes
					{
						OFFSET 0.000000 0.000000 0.090000
						CHANNELS 3 Xrotation Yrotation Zrotation
						End Site
						{
							OFFSET 0.000000 0.000000 0.000000
						}
					}
				}
			}
		}
	}
	JOINT Neck
	{
		OFFSET 0.000000 0.135000 0.000000
		CHANNELS 3 Xrotation Yrotation Zrotation
		JOINT Head
		{
			OFFSET 0.000000 0.075000 0.000000
			CHANNELS 3 Xrotation Yrotation Zrotation
			End Site
			{
				OFFSET 0.000000 0.000000 0.000000
			}
		}
	}
	JOINT LUpperarm
	{
		OFFSET 0.098000 0.150000 0.000000
		CHANNELS 3 Xrotation Yrotation Zrotation
		JOINT LLowerarm
		{
			OFFSET 0.000000 0.009000 0.090000
			CHANNELS 3 Xrotation Yrotation Zrotation
			JOINT LHand
			{
				OFFSET 0.000000 0.000000 0.105000
				CHANNELS 3 Xrotation Yrotation Zrotation
				End Site
				{
					OFFSET 0.000000 0.000000 0.000000
				}
			}
		}
	}
	JOINT RUpperarm
	{
		OFFSET -0.098000 0.150000 0.000000
		CHANNELS 3 Xrotation Yrotation Zrotation
		JOINT RLowerarm
		{
			OFFSET 0.000000 0.009000 0.090000
			CHANNELS 3 Xrotation Yrotation Zrotation
			JOINT RHand
			{
				OFFSET 0.000000 0.000000 0.105000
				CHANNELS 3 Xrotation Yrotation Zrotation
				End Site
				{
					OFFSET 0.000000 0.000000 0.000000
				}
			}
		}
	}
}
MOTION
Frames: 19
Frame Time: 0.040000
0.437758 0.425553 -0.030866 -107.783825 -81.257341 -108.160026 -6.413627 -7.913662 -3.450572 18.075588 -16.499847 -0.253434 22.781073 7.791128 -1.019384 -14.282764 20.456774 -0.689989 -3.382099 -1.230098 -0.036335 -4.461483 4.174710 3.230484 13.520630 12.040077 6.143433 22.099353 -9.709354 1.750550 -18.491633 -23.236412 -0.692746 -16.205690 5.800204 0.826453 11.927043 4.330834 -14.013504 5.338499 2.567019 -6.478917 -154.238886 84.599906 159.416205 10.239348 -8.394396 17.023202 2.032899 0.000000 0.000000 -135.739884 -86.628505 -122.967409 10.861590 21.622271 -19.588306 -31.887885 0.000000 0.000000 
0.437603 0.425545 -0.030409 -104.515283 -81.130761 -104.836202 -6.319556 -7.966897 -3.579605 18.141262 -16.540491 -0.272463 22.886439 7.774332 -0.984076 -14.259124 20.468493 -0.702263 -3.545699 -1.289498 -0.039928 -4.286332 4.001826 3.135528 13.740300 12.269813 6.131657 21.968733 -9.706254 1.812914 -18.686557 -23.392344 -0.775480 -15.918189 5.700607 0.797626 12.646950 3.954648 -13.773737 5.517291 2.450858 -6.440208 -153.327227 86.128347 158.410741 10.681339 -7.443701 17.215376 2.099499 0.000000 0.000000 -145.849670 -87.079934 -132.555980 11.105354 21.225111 -19.620867 -31.669485 0.000000 0.000000 
0.437441 0.425523 -0.029948 -104.338076 -81.041693 -104.661215 -6.263583 -7.965883 -3.595976 18.129682 -16.485364 -0.362931 22.945999 7.791495 -0.988902 -14.248055 20.516512 -0.714447 -3.661297 -1.331502 -0.042518 -4.284198 3.966066 3.123555 13.910714 12.506468 6.083024 21.903167 -9.682681 1.830312 -18.846847 -23.455587 -0.852363 -15.691795 5.622089 0.775360 13.099436 3.679328 -13.497231 5.721073 2.336776 -6.417213 -150.361860 86.076269 155.013789 10.806555 -7.644393 17.184800 1.785599 0.000000 0.000000 -135.718589 -87.449744 -122.696480 11.123533 21.335591 -19.617206 -31.576185 0.000000 0.000000 
0.437277 0.425476 -0.029480 -105.912938 -80.974236 -106.272768 -6.239068 -7.937455 -3.547216 18.103431 -16.378628 -0.498828 22.956011 7.821781 -1.012205 -14.292676 20.581100 -0.703495 -3.610798 -1.313100 -0.041383 -4.384979 4.012191 3.153819 14.045780 12.739683 6.016607 21.901378 -9.656138 1.827961 -18.955176 -23.458474 -0.910729 -15.563494 5.577593 0.762833 13.342221 3.504429 -13.229320 5.934482 2.238881 -6.417501 -144.060094 85.066839 147.935899 10.674640 -8.550514 16.996330 1.331299 0.000000 0.000000 -105.542608 -87.136797 -93.356799 10.879410 21.823917 -19.546548 -31.602185 0.000000 0.000000 
0.437130 0.425406 -0.029010 -107.283595 -80.867221 -107.665331 -6.217929 -7.916239 -3.492678 18.128090 -16.290467 -0.667114 22.931964 7.839992 -1.028899 -14.394214 20.643182 -0.666024 -3.361798 -1.222700 -0.035865 -4.469123 4.056505 3.182187 14.186542 12.947383 5.930471 21.947690 -9.649009 1.832472 -19.048775 -23.408307 -0.968106 -15.462495 5.542489 0.753059 13.497894 3.400451 -13.038502 6.130535 2.166959 -6.440824 -133.573556 83.961248 136.054972 10.294879 -9.549590 16.775717 0.631000 0.000000 0.000000 -81.957597 -85.386691 -70.774663 10.353722 22.460813 -19.421395 -31.797285 0.000000 0.000000 
0.437005 0.425328 -0.028535 -107.845196 -80.682238 -108.214158 -6.168218 -7.914613 -3.461594 18.233036 -16.266046 -0.864912 22.892429 7.837856 -1.028012 -14.551199 20.691314 -0.600008 -2.937699 -1.068599 -0.027403 -4.463650 4.052076 3.189035 14.355006 13.112067 5.814088 22.016680 -9.666055 1.852885 -19.134475 -23.322885 -1.024296 -15.372993 5.511394 0.744422 13.667655 3.339430 -12.959728 6.293781 2.125743 -6.488170 -118.843671 82.777116 119.917098 9.737133 -10.267558 16.588286 -0.140300 0.000000 0.000000 -70.868473 -82.472110 -60.594431 9.583338 23.026526 -19.278710 -32.193685 0.000000 0.000000 
0.436916 0.425256 -0.028059 -108.085617 -80.385317 -108.424155 -6.060575 -7.906815 -3.442928 18.400971 -16.294162 -1.078453 22.847099 7.827033 -1.018799 -14.727097 20.713850 -0.519846 -2.409899 -0.876798 -0.018485 -4.371094 4.015935 3.186162 14.559645 13.250002 5.675952 22.091880 -9.692350 1.877692 -19.225861 -23.233028 -1.083112 -15.305092 5.487699 0.737885 13.902424 3.317427 -12.953602 6.417166 2.122925 -6.543455 -103.515291 81.002694 103.728204 9.046566 -10.687234 16.452549 -0.866200 0.000000 0.000000 -64.669689 -78.698117 -55.388439 8.619314 23.415974 -19.179139 -32.780884 0.000000 0.000000 
0.436860 0.425195 -0.027583 -108.314175 -80.010640 -108.620494 -5.892078 -7.871502 -3.426165 18.580092 -16.335131 -1.286265 22.802709 7.821385 -1.010171 -14.872530 20.721435 -0.451021 -1.910299 -0.695100 -0.011578 -4.227348 3.975396 3.185651 14.792851 13.400427 5.532482 22.156141 -9.711649 1.894969 -19.333550 -23.163502 -1.148426 -15.281295 5.479490 0.735656 14.221928 3.321841 -12.970797 6.510231 2.153842 -6.596917 -91.430820 78.434003 91.417527 8.221790 -10.979497 16.353717 -1.686899 0.000000 0.000000 -61.105126 -74.330897 -53.398615 7.465454 23.700404 -19.133488 -33.556384 0.000000 0.000000 
0.436849 0.425161 -0.027111 -108.295501 -79.659984 -108.572588 -5.707368 -7.822624 -3.415306 18.708102 -16.349350 -1.459222 22.771293 7.826495 -0.998729 -14.936257 20.714470 -0.418455 -1.571300 -0.571799 -0.007882 -4.082762 3.940739 3.185055 15.021360 13.578764 5.409470 22.190871 -9.718469 1.904624 -19.464743 -23.141176 -1.222291 -15.294390 5.484004 0.736846 14.582337 3.359007 -12.988783 6.581088 2.215227 -6.649800 -82.827717 75.213006 83.109624 7.290887 -11.271919 16.280165 -2.582699 0.000000 0.000000 -59.720093 -69.767802 -54.215321 6.125964 24.083846 -19.122630 -34.502284 0.000000 0.000000 
0.436891 0.425150 -0.026654 -107.829650 -79.392493 -108.082282 -5.540738 -7.786470 -3.416978 18.766223 -16.313413 -1.583235 22.765652 7.839970 -0.977344 -14.905273 20.679726 -0.426390 -1.425099 -0.518601 -0.006400 -3.960266 3.904930 3.176430 15.223290 13.776118 5.325173 22.189076 -9.716993 1.914288 -19.616712 -23.176175 -1.302086 -15.315795 5.491490 0.738952 14.943935 3.426378 -13.004057 6.639893 2.298353 -6.708020 -76.738010 71.566449 77.720760 6.250241 -11.690960 16.244881 -3.711098 0.000000 0.000000 -59.700842 -65.311736 -56.606202 4.657043 24.727612 -19.174084 -35.537583 0.000000 0.000000 
0.436988 0.425159 -0.026209 -106.922401 -79.205102 -107.148124 -5.402538 -7.773243 -3.424279 18.762215 -16.245033 -1.681318 22.786356 7.857139 -0.949884 -14.777531 20.635692 -0.477960 -1.491399 -0.542701 -0.007027 -3.852969 3.865989 3.162997 15.394312 13.947728 5.262447 22.158151 -9.711599 1.924201 -19.775358 -23.248536 -1.382232 -15.323296 5.494086 0.739685 15.299451 3.513951 -13.021403 6.687922 2.396417 -6.767068 -72.349304 67.699943 74.344296 5.099838 -12.318842 16.267089 -5.079997 0.000000 0.000000 -60.338436 -61.055385 -59.547388 3.086289 25.681566 -19.293298 -36.543883 0.000000 0.000000 
0.437149 0.425170 -0.025776 -105.717403 -79.079138 -105.907461 -5.298569 -7.776834 -3.426209 18.718744 -16.190348 -1.778507 22.815920 7.872513 -0.925176 -14.572528 20.609468 -0.568058 -1.730199 -0.629599 -0.009514 -3.754615 3.830907 3.154395 15.530681 14.053596 5.199165 22.116742 -9.706082 1.930610 -19.933057 -23.330064 -1.461241 -15.298591 5.485503 0.737259 15.642810 3.623870 -13.049213 6.724456 2.510509 -6.829098 -69.153363 63.776277 72.385061 3.843306 -13.217974 16.365842 -6.603397 0.000000 0.000000 -61.217454 -57.028025 -62.462257 1.435684 26.935721 -19.475449 -37.353583 0.000000 0.000000 
0.437375 0.425175 -0.025361 -104.474522 -78.989649 -104.626255 -5.228296 -7.782913 -3.419726 18.669790 -16.178570 -1.874691 22.828642 7.882955 -0.906410 -14.348429 20.599074 -0.669370 -2.003200 -0.728898 -0.012787 -3.673241 3.806653 3.156539 15.635278 14.111773 5.133210 22.084271 -9.705715 1.929829 -20.119282 -23.381171 -1.557285 -15.183293 5.445397 0.726301 15.978774 3.742024 -13.090901 6.747343 2.635241 -6.897644 -66.889339 59.929014 71.491803 2.478502 -14.436777 16.534161 -8.179496 0.000000 0.000000 -62.061431 -53.243141 -65.011932 -0.293421 28.476774 -19.711039 -37.852382 0.000000 0.000000 
0.437653 0.425172 -0.024963 -103.376648 -78.909215 -103.485426 -5.181109 -7.778465 -3.398737 18.636900 -16.235920 -1.983655 22.809230 7.887934 -0.896420 -14.151353 20.603777 -0.760775 -2.201499 -0.801000 -0.015381 -3.602772 3.794734 3.178838 15.720568 14.131973 5.044458 22.069909 -9.712466 1.916200 -20.357234 -23.357903 -1.685309 -14.930795 5.357390 0.702552 16.331835 3.846908 -13.155057 6.769652 2.761177 -6.979399 -65.341376 56.269058 71.367061 0.995208 -16.024723 16.751799 -9.680195 0.000000 0.000000 -62.740769 -49.707563 -67.072013 -2.135584 30.310277 -19.969042 -37.936482 0.000000 0.000000 
0.437970 0.425167 -0.024591 -102.555674 -78.820724 -102.616565 -5.141914 -7.753118 -3.360030 18.624215 -16.367228 -2.110902 22.757233 7.889757 -0.898483 -13.995818 20.630179 -0.836826 -2.293399 -0.834499 -0.016708 -3.535031 3.796683 3.225153 15.797622 14.122598 4.923511 22.071437 -9.721514 1.887729 -20.632604 -23.262249 -1.837356 -14.565495 5.229892 0.668843 16.729153 3.902902 -13.234330 6.804952 2.870959 -7.074693 -64.302456 52.860164 71.719399 -0.603690 -17.973580 16.975341 -10.873295 0.000000 0.000000 -63.212251 -46.437832 -68.635875 -4.150458 32.444576 -20.194210 -37.631883 0.000000 0.000000 
0.438320 0.425164 -0.024254 -102.072936 -78.716303 -102.090097 -5.096548 -7.702752 -3.316010 18.625429 -16.536558 -2.229971 22.682652 7.890490 -0.911550 -13.869313 20.681855 -0.904166 -2.323199 -0.845298 -0.017180 -3.473636 3.810710 3.283336 15.870531 14.126639 4.796056 22.078284 -9.726538 1.849647 -20.923273 -23.136848 -1.998972 -14.134392 5.079100 0.630078 17.180208 3.889897 -13.294434 6.853544 2.953448 -7.168103 -63.609722 49.725308 72.316050 -2.328695 -20.248673 17.144391 -11.625794 0.000000 0.000000 -63.468613 -43.466134 -69.741562 -6.412796 34.887202 -20.313507 -36.952283 0.000000 0.000000 
0.438704 0.425170 -0.023968 -101.902003 -78.597124 -101.886943 -5.037814 -7.629697 -3.279878 18.627690 -16.701221 -2.315062 22.600727 7.891788 -0.932527 -13.746785 20.756850 -0.973995 -2.375599 -0.864299 -0.017941 -3.423239 3.834419 3.338669 15.940748 14.173235 4.688835 22.077512 -9.722541 1.807744 -21.206886 -23.023773 -2.155656 -13.682393 4.920599 0.590685 17.679811 3.795680 -13.303891 6.910585 2.999261 -7.243306 -63.111907 46.865155 72.959609 -4.196004 -22.789979 17.201399 -11.823194 0.000000 0.000000 -63.523940 -40.829204 -70.445459 -8.993115 37.612445 -20.217428 -35.921783 0.000000 0.000000 
0.439121 0.425184 -0.023728 -101.931975 -78.474669 -101.900244 -4.969889 -7.542898 -3.258133 18.625980 -16.835199 -2.353444 22.524018 7.895149 -0.956342 -13.621860 20.839384 -1.046440 -2.481898 -0.903001 -0.019522 -3.388676 3.864066 3.382022 16.009835 14.270131 4.620811 22.061006 -9.708423 1.766761 -21.469073 -22.948237 -2.298694 -13.246090 4.767308 0.553809 18.217953 3.619036 -13.238135 6.973859 3.002841 -7.287405 -62.655915 44.280374 73.492111 -6.227492 -25.496266 17.076832 -11.526894 0.000000 0.000000 -63.409028 -38.553829 -70.804491 -11.939685 40.566585 -19.776057 -34.554784 0.000000 0.000000 
0.439572 0.425200 -0.023534 -102.020729 -78.353268 -101.983998 -4.899656 -7.452400 -3.246483 18.617553 -16.941009 -2.357237 22.458997 7.901147 -0.978853 -13.499224 20.912469 -1.116364 -2.623298 -0.954402 -0.021806 -3.366145 3.894062 3.416325 16.077661 14.398881 4.583497 22.028168 -9.685904 1.728809 -21.702437 -22.910905 -2.424549 -12.849491 4.627604 0.521345 18.777927 3.382008 -13.079972 7.036151 2.969608 -7.282031 -62.137474 41.973049 73.830656 -8.442745 -28.251407 16.711184 -10.800795 0.000000 0.000000 -63.149731 -36.652760 -70.872740 -15.293609 43.672473 -18.816121 -32.754784 0.000000 0.000000 
